<svg xmlns="http://www.w3.org/2000/svg" viewBox="0 0 64 64">
  <rect x="4" y="4" width="56" height="56" rx="14" fill="#ffffff"/>
  <rect x="7" y="7" width="50" height="50" rx="12" fill="none" stroke="#1f7cc0" stroke-width="5"/>
  <path d="M24 19.5c2.2-4 6.6-6.5 11.6-6.5 7.2 0 13.4 5.6 13.4 13.5 0 7.8-6.2 13.5-13.4 13.5-4.5 0-8.1-1.7-10.7-5.1v4.1h-7V19.5h7Zm0 12.4c1.6 3 4.8 4.9 8.3 4.9 4.8 0 8.7-3.8 8.7-10.3 0-6.6-3.9-10.4-8.7-10.4-3.5 0-6.7 1.9-8.3 5v10.8Z" fill="#1f7cc0"/>
  <path d="M23 11.2 31.7 19 48 3.8" fill="none" stroke="#8ec740" stroke-width="6" stroke-linecap="round" stroke-linejoin="round"/>
</svg>
